<svg width="113" height="22" viewBox="0 0 113 22" fill="none" xmlns="http://www.w3.org/2000/svg">
<path d="M34.1 16.28H34C33.7733 16.8933 33.4 17.3733 32.88 17.72C32.3733 18.0667 31.7733 18.24 31.08 18.24C29.76 18.24 28.74 17.7667 28.02 16.82C27.3 15.86 26.94 14.52 26.94 12.8C26.94 11.08 27.3 9.74667 28.02 8.8C28.74 7.84 29.76 7.36 31.08 7.36C31.7733 7.36 32.3733 7.53333 32.88 7.88C33.4 8.21333 33.7733 8.69333 34 9.32H34.1V3.2H36.28V18H34.1V16.28ZM31.74 16.36C32.4067 16.36 32.9667 16.2 33.42 15.88C33.8733 15.5467 34.1 15.1133 34.1 14.58V11.02C34.1 10.4867 33.8733 10.06 33.42 9.74C32.9667 9.40667 32.4067 9.24 31.74 9.24C30.98 9.24 30.3733 9.48667 29.92 9.98C29.4667 10.46 29.24 11.1 29.24 11.9V13.7C29.24 14.5 29.4667 15.1467 29.92 15.64C30.3733 16.12 30.98 16.36 31.74 16.36ZM43.4759 18.24C42.7293 18.24 42.0626 18.1133 41.4759 17.86C40.8893 17.6067 40.3893 17.2467 39.9759 16.78C39.5626 16.3 39.2426 15.7267 39.0159 15.06C38.8026 14.38 38.6959 13.6267 38.6959 12.8C38.6959 11.9733 38.8026 11.2267 39.0159 10.56C39.2426 9.88 39.5626 9.30667 39.9759 8.84C40.3893 8.36 40.8893 7.99333 41.4759 7.74C42.0626 7.48667 42.7293 7.36 43.4759 7.36C44.2359 7.36 44.9026 7.49333 45.4759 7.76C46.0626 8.02667 46.5493 8.4 46.9359 8.88C47.3226 9.34667 47.6093 9.89333 47.7959 10.52C47.9959 11.1467 48.0959 11.82 48.0959 12.54V13.36H40.9559V13.7C40.9559 14.5 41.1893 15.16 41.6559 15.68C42.1359 16.1867 42.8159 16.44 43.6959 16.44C44.3359 16.44 44.8759 16.3 45.3159 16.02C45.7559 15.74 46.1293 15.36 46.4359 14.88L47.7159 16.14C47.3293 16.78 46.7693 17.2933 46.0359 17.68C45.3026 18.0533 44.4493 18.24 43.4759 18.24ZM43.4759 9.06C43.1026 9.06 42.7559 9.12667 42.4359 9.26C42.1293 9.39333 41.8626 9.58 41.6359 9.82C41.4226 10.06 41.2559 10.3467 41.1359 10.68C41.0159 11.0133 40.9559 11.38 40.9559 11.78V11.92H45.7959V11.72C45.7959 10.92 45.5893 10.28 45.1759 9.8C44.7626 9.30667 44.1959 9.06 43.4759 9.06ZM52.5934 18L49.0534 7.6H51.2134L52.7934 12.34L53.8534 15.98H53.9734L55.0334 12.34L56.6534 7.6H58.7334L55.1534 18H52.5934ZM63.8678 18.24C62.8811 18.24 62.0545 18.0667 61.3878 17.72C60.7211 17.3733 60.1411 16.8933 59.6478 16.28L61.0478 15C61.4345 15.4667 61.8611 15.8333 62.3278 16.1C62.8078 16.3533 63.3611 16.48 63.9878 16.48C64.6278 16.48 65.1011 16.36 65.4078 16.12C65.7278 15.8667 65.8878 15.52 65.8878 15.08C65.8878 14.7467 65.7745 14.4667 65.5478 14.24C65.3345 14 64.9545 13.8467 64.4078 13.78L63.4478 13.66C62.3811 13.5267 61.5411 13.22 60.9278 12.74C60.3278 12.2467 60.0278 11.52 60.0278 10.56C60.0278 10.0533 60.1211 9.60667 60.3078 9.22C60.4945 8.82 60.7545 8.48667 61.0878 8.22C61.4345 7.94 61.8411 7.72667 62.3078 7.58C62.7878 7.43333 63.3145 7.36 63.8878 7.36C64.8211 7.36 65.5811 7.50667 66.1678 7.8C66.7678 8.09333 67.3011 8.5 67.7678 9.02L66.4278 10.3C66.1611 9.98 65.8078 9.70667 65.3678 9.48C64.9411 9.24 64.4478 9.12 63.8878 9.12C63.2878 9.12 62.8411 9.24 62.5478 9.48C62.2678 9.72 62.1278 10.0333 62.1278 10.42C62.1278 10.82 62.2545 11.12 62.5078 11.32C62.7611 11.52 63.1678 11.6667 63.7278 11.76L64.6878 11.88C65.8345 12.0533 66.6678 12.3933 67.1878 12.9C67.7211 13.3933 67.9878 14.06 67.9878 14.9C67.9878 15.4067 67.8878 15.8667 67.6878 16.28C67.5011 16.68 67.2278 17.0267 66.8678 17.32C66.5078 17.6133 66.0745 17.84 65.5678 18C65.0611 18.16 64.4945 18.24 63.8678 18.24ZM73.1939 18C72.4339 18 71.8606 17.8067 71.4739 17.42C71.0872 17.02 70.8939 16.46 70.8939 15.74V9.38H69.2739V7.6H70.1539C70.5139 7.6 70.7606 7.52 70.8939 7.36C71.0406 7.2 71.1139 6.94 71.1139 6.58V4.76H73.0739V7.6H75.2539V9.38H73.0739V16.22H75.0939V18H73.1939ZM77.6186 18V7.6H79.7986V9.6H79.8986C80.0453 9.06667 80.3519 8.6 80.8186 8.2C81.2853 7.8 81.9319 7.6 82.7586 7.6H83.3386V9.7H82.4786C81.6119 9.7 80.9453 9.84 80.4786 10.12C80.0253 10.4 79.7986 10.8133 79.7986 11.36V18H77.6186ZM91.5748 16.28H91.4948C91.4015 16.5333 91.2748 16.78 91.1148 17.02C90.9682 17.26 90.7748 17.4733 90.5348 17.66C90.3082 17.8333 90.0282 17.9733 89.6948 18.08C89.3748 18.1867 89.0015 18.24 88.5748 18.24C87.4948 18.24 86.6548 17.8933 86.0548 17.2C85.4682 16.5067 85.1748 15.5133 85.1748 14.22V7.6H87.3548V13.94C87.3548 15.5533 88.0215 16.36 89.3548 16.36C89.6348 16.36 89.9082 16.3267 90.1748 16.26C90.4415 16.18 90.6748 16.0667 90.8748 15.92C91.0882 15.7733 91.2548 15.5867 91.3748 15.36C91.5082 15.1333 91.5748 14.8667 91.5748 14.56V7.6H93.7548V18H91.5748V16.28ZM100.896 18.24C100.15 18.24 99.4831 18.1133 98.8964 17.86C98.3097 17.6067 97.8164 17.2467 97.4164 16.78C97.0164 16.3 96.7097 15.7267 96.4964 15.06C96.2831 14.38 96.1764 13.6267 96.1764 12.8C96.1764 11.9733 96.2831 11.2267 96.4964 10.56C96.7097 9.88 97.0164 9.30667 97.4164 8.84C97.8164 8.36 98.3097 7.99333 98.8964 7.74C99.4831 7.48667 100.15 7.36 100.896 7.36C101.936 7.36 102.79 7.59333 103.456 8.06C104.123 8.52667 104.61 9.14667 104.916 9.92L103.116 10.76C102.97 10.28 102.71 9.9 102.336 9.62C101.976 9.32667 101.496 9.18 100.896 9.18C100.096 9.18 99.4897 9.43333 99.0764 9.94C98.6764 10.4333 98.4764 11.08 98.4764 11.88V13.74C98.4764 14.54 98.6764 15.1933 99.0764 15.7C99.4897 16.1933 100.096 16.44 100.896 16.44C101.536 16.44 102.043 16.2867 102.416 15.98C102.803 15.66 103.11 15.24 103.336 14.72L104.996 15.6C104.65 16.4533 104.13 17.1067 103.436 17.56C102.743 18.0133 101.896 18.24 100.896 18.24ZM109.952 18C109.192 18 108.618 17.8067 108.232 17.42C107.845 17.02 107.652 16.46 107.652 15.74V9.38H106.032V7.6H106.912C107.272 7.6 107.518 7.52 107.652 7.36C107.798 7.2 107.872 6.94 107.872 6.58V4.76H109.832V7.6H112.012V9.38H109.832V16.22H111.852V18H109.952Z" fill="#252525"/>
<path fill-rule="evenodd" clip-rule="evenodd" d="M11 -4.80825e-07C15.0208 -6.56582e-07 18.5378 2.15734 20.4566 5.37766L20.4566 5.75287L14.3318 5.75287C13.5642 5.75287 12.8864 6.03736 12.2984 6.60632C11.6941 7.15422 11.3267 7.87069 11.196 8.75575L10.804 8.75575C10.6733 7.87069 10.314 7.15422 9.72606 6.60632C9.12175 6.03736 8.43578 5.75288 7.66815 5.75288L1.54343 5.75288L1.54343 5.37766C3.46218 2.15734 6.97915 -3.05068e-07 11 -4.80825e-07ZM22 11C22 9.71702 21.7804 8.48534 21.3766 7.34052C21.0068 7.73611 20.5449 7.93391 19.9911 7.93391L14.1114 7.93391C13.4091 7.93391 12.8782 8.22893 12.5189 8.81897C12.1433 9.38793 11.9555 10.1149 11.9555 11C11.9555 11.8851 12.1433 12.6121 12.5189 13.181C12.8782 13.7711 13.4091 14.0661 14.1114 14.0661L19.9911 14.0661C20.5449 14.0661 21.0068 14.2639 21.3766 14.6595C21.7804 13.5147 22 12.283 22 11ZM20.4566 16.6223C18.5378 19.8427 15.0208 22 11 22C6.97915 22 3.46218 19.8427 1.54343 16.6223L1.54343 16.2471L7.66815 16.2471C8.43578 16.2471 9.12175 15.9626 9.72606 15.3937C10.314 14.8458 10.6733 14.1293 10.804 13.2443L11.196 13.2443C11.3267 14.1293 11.6941 14.8458 12.2984 15.3937C12.8864 15.9626 13.5642 16.2471 14.3318 16.2471L20.4566 16.2471L20.4566 16.6223ZM0.623385 14.6595C0.993244 14.2639 1.45509 14.0661 2.00891 14.0661L7.88864 14.0661C8.59094 14.0661 9.12992 13.7711 9.50557 13.181C9.86488 12.6121 10.0445 11.8851 10.0445 11C10.0445 10.1149 9.86488 9.38793 9.50557 8.81897C9.12992 8.22893 8.59094 7.93391 7.88864 7.93391L2.00891 7.93391C1.45508 7.93391 0.993242 7.73611 0.623383 7.34052C0.219644 8.48534 -5.36906e-07 9.71702 -4.80825e-07 11C-4.24744e-07 12.283 0.219645 13.5147 0.623385 14.6595Z" fill="#3445E4"/>
</svg>
