<svg width="22" height="22" viewBox="0 0 22 22" fill="none" xmlns="http://www.w3.org/2000/svg">
<path d="M9.15867 13.7847L9.15867 13.2878L9.32848 13.1117C10.0455 13.7281 10.9763 14.0992 11.9889 14.0992C14.2467 14.0992 16.0769 12.269 16.0769 10.0111C16.0769 7.75325 14.2467 5.92307 11.9889 5.92307C9.73099 5.92306 7.9008 7.75325 7.9008 10.0111C7.9008 11.0237 8.27187 11.9545 8.88822 12.6715L8.71212 12.8413L8.21527 12.8413L5.0769 15.986L6.01401 16.9231L9.15867 13.7847V13.7847ZM9.15867 10.0111C9.15867 8.44508 10.4228 7.18093 11.9889 7.18093C13.5549 7.18093 14.819 8.44508 14.819 10.0111C14.819 11.5772 13.5549 12.8413 11.9889 12.8413C10.4228 12.8413 9.15867 11.5772 9.15867 10.0111Z" fill="black"/>
<circle cx="11" cy="11" r="10.5" stroke="#252525"/>
</svg>
